#!OML:ASF X:\für Bonn\!DataBase\2005_08_12_Daniel\c3d\Daniel.ASF
:FULLY-SPECIFIED
:DEGREES
185
root 1.62343 17.3312 17.8189 347.276 -263.346 711.098
lowerback 6.43402 -6.4769 0.179497
upperback 0.659544 -8.69671 -3.74148
thorax -3.50966 -4.33669 -3.11649
lowerneck 5.42262 -4.16193 0.353932
upperneck 12.717 -4.99002 -2.96231
head 3.05152 -2.4191 -1.05723
rclavicle -7.49542e-014 1.90833e-014
rhumerus -22.7291 -35.0562 -14.0391
rradius 100.166
rwrist -17.6367
rhand -0.77419 14.2171
rfingers 7.12502
rthumb 24.8486 -14.1881
lclavicle -7.49542e-014 1.90833e-014
lhumerus -42.4113 38.1695 63.1689
lradius 28.1983
lwrist -23.8696
lhand -10.605 -5.67695
lfingers 7.12502
lthumb 15.401 23.7294
rfemur 5.69105 24.2182 25.3837
rtibia 25.7006
rfoot -53.8334 -36.5399
rtoes -2.23973
lfemur -14.0639 18.2531 -13.1927
ltibia 44.6644
lfoot -23.2726 13.2978
ltoes -9.40502
186
root 1.62738 17.3285 17.7682 347.97 -262.873 711.804
lowerback 6.4866 -6.45127 0.152602
upperback 0.636184 -8.66502 -3.7009
thorax -3.55079 -4.3202 -3.05629
lowerneck 5.51309 -3.44265 1.17932
upperneck 12.6176 -3.94206 -3.57729
head 2.99198 -1.87489 -1.38534
rclavicle -1.09766e-013 -1.82882e-014
rhumerus -23.5545 -34.4657 -14.2546
rradius 101.79
rwrist -19.598
rhand -1.72672 14.3418
rfingers 7.12502
rthumb 23.9355 -14.1863
lclavicle -1.09766e-013 -1.82882e-014
lhumerus -42.3736 38.1421 63.2974
lradius 28.0785
lwrist -23.8857
lhand -10.5921 -5.52664
lfingers 7.12502
lthumb 15.4134 23.8787
rfemur 5.67721 23.3519 24.9918
rtibia 25.6884
rfoot -53.3985 -36.2916
rtoes -2.62276
lfemur -14.3441 18.6892 -13.5295
ltibia 44.8918
lfoot -23.5807 13.4868
ltoes -8.94234
187
root 1.6313 17.3258 17.7156 348.583 -262.393 712.427
lowerback 6.52134 -6.41731 0.128561
upperback 0.626015 -8.62129 -3.67106
thorax -3.56974 -4.29768 -3.01293
lowerneck 5.58592 -2.74072 1.90976
upperneck 12.5725 -2.9264 -4.07965
head 2.97542 -1.34733 -1.66863
rclavicle -5.90142e-015 2.38542e-014
rhumerus -24.3947 -33.8393 -14.5415
rradius 103.418
rwrist -21.5525
rhand -2.57244 14.3513
rfingers 7.12502
rthumb 23.1243 -14.2809
lclavicle -5.90142e-015 2.38542e-014
lhumerus -42.3141 38.1475 63.4191
lradius 27.9405
lwrist -23.9491
lhand -10.5554 -5.43245
lfingers 7.12502
lthumb 15.4488 23.9702
rfemur 5.67856 22.5159 24.603
rtibia 25.6745
rfoot -53.0273 -36.0105
rtoes -2.9037
lfemur -14.6258 19.0737 -13.8863
ltibia 45.1088
lfoot -23.8688 13.7271
ltoes -8.5
188
root 1.63506 17.3213 17.6613 349.122 -261.904 712.978
lowerback 6.56065 -6.38434 0.101233
upperback 0.611428 -8.5794 -3.64119
thorax -3.59554 -4.27605 -2.96678
lowerneck 5.77546 -2.02607 2.56718
upperneck 12.4415 -1.90405 -4.48429
head 2.92576 -0.815647 -1.90829
rclavicle 5.87906e-014 -1.51076e-014
rhumerus -25.2031 -33.1203 -14.9066
rradius 105.024
rwrist -23.4293
rhand -3.36182 14.2745
rfingers 7.12502
rthumb 22.3667 -14.4508
lclavicle 5.87906e-014 -1.51076e-014
lhumerus -42.3072 38.1979 63.4997
lradius 27.7983
lwrist -24.0881
lhand -10.5434 -5.37037
lfingers 7.12502
lthumb 15.4603 24.0314
rfemur 5.6771 21.6689 24.2104
rtibia 25.6757
rfoot -52.5985 -35.7689
rtoes -3.22621
lfemur -14.8815 19.4195 -14.2397
ltibia 45.3128
lfoot -24.1794 13.9007
ltoes -8.00256
189
root 1.63934 17.3165 17.6051 349.667 -261.421 713.543
lowerback 6.59315 -6.34219 0.0735388
upperback 0.608294 -8.52436 -3.59808
thorax -3.60282 -4.24771 -2.9099
lowerneck 5.99392 -1.31593 3.21346
upperneck 12.321 -0.882891 -4.89529
head 2.88831 -0.284043 -2.15311
rclavicle 5.22182e-014 3.97569e-014
rhumerus -25.9567 -32.3664 -15.3439
rradius 106.585
rwrist -25.2163
rhand -4.04209 14.1037
rfingers 7.12502
rthumb 21.7135 -14.6986
lclavicle 5.22182e-014 3.97569e-014
lhumerus -42.3267 38.3498 63.5432
lradius 27.6113
lwrist -24.3667
lhand -10.5484 -5.34487
lfingers 7.12502
lthumb 15.4555 24.0573
rfemur 5.69658 20.8816 23.8456
rtibia 25.6875
rfoot -52.2514 -35.5361
rtoes -3.59218
lfemur -15.0917 19.7116 -14.5786
ltibia 45.5075
lfoot -24.5321 14.0337
ltoes -7.51785
190
root 1.64334 17.3107 17.5475 350.089 -260.931 713.984
lowerback 6.6393 -6.3035 0.0307688
upperback 0.590878 -8.47596 -3.56004
thorax -3.63169 -4.22249 -2.84689
lowerneck 6.34725 -0.608325 3.84804
upperneck 12.1114 0.136833 -5.29575
head 2.80969 0.248833 -2.39491
rclavicle -4.5472e-014 -2.38542e-014
rhumerus -26.7003 -31.5237 -15.8677
rradius 108.114
rwrist -26.8882
rhand -4.64511 13.8573
rfingers 7.12502
rthumb 21.1344 -15.0108
lclavicle -4.5472e-014 -2.38542e-014
lhumerus -42.3795 38.4458 63.5792
lradius 27.4281
lwrist -24.6327
lhand -10.5692 -5.33546
lfingers 7.12502
lthumb 15.4355 24.0682
rfemur 5.70454 20.0283 23.4425
rtibia 25.7103
rfoot -51.8016 -35.2981
rtoes -3.91141
lfemur -15.2674 19.924 -14.9246
ltibia 45.6806
lfoot -24.8856 14.125
ltoes -6.89843
